<?xml version="1.0" encoding="UTF-8" standalone="no"?>
<!-- Created with Inkscape (http://www.inkscape.org/) -->

<svg
   xmlns:dc="http://purl.org/dc/elements/1.1/"
   xmlns:cc="http://creativecommons.org/ns#"
   xmlns:rdf="http://www.w3.org/1999/02/22-rdf-syntax-ns#"
   xmlns:svg="http://www.w3.org/2000/svg"
   xmlns="http://www.w3.org/2000/svg"
   xmlns:sodipodi="http://sodipodi.sourceforge.net/DTD/sodipodi-0.dtd"
   xmlns:inkscape="http://www.inkscape.org/namespaces/inkscape"
   width="210mm"
   height="297mm"
   viewBox="0 0 210 297"
   version="1.1"
   id="svg8"
   inkscape:version="0.92.3 (2405546, 2018-03-11)"
   sodipodi:docname="icon.svg">
  <defs
     id="defs2" />
  <sodipodi:namedview
     id="base"
     pagecolor="#ffffff"
     bordercolor="#666666"
     borderopacity="1.0"
     inkscape:pageopacity="0.0"
     inkscape:pageshadow="2"
     inkscape:zoom="0.7"
     inkscape:cx="-58.648549"
     inkscape:cy="686.37958"
     inkscape:document-units="mm"
     inkscape:current-layer="layer1"
     showgrid="false"
     inkscape:window-width="1920"
     inkscape:window-height="1001"
     inkscape:window-x="2391"
     inkscape:window-y="-9"
     inkscape:window-maximized="1" />
  <metadata
     id="metadata5">
    <rdf:RDF>
      <cc:Work
         rdf:about="">
        <dc:format>image/svg+xml</dc:format>
        <dc:type
           rdf:resource="http://purl.org/dc/dcmitype/StillImage" />
        <dc:title></dc:title>
      </cc:Work>
    </rdf:RDF>
  </metadata>
  <g
     inkscape:label="Layer 1"
     inkscape:groupmode="layer"
     id="layer1">
    <rect
       style="opacity:0.175;fill:#ffff00;fill-opacity:1;stroke:#ffffff;stroke-width:6.5999999;stroke-miterlimit:4;stroke-dasharray:none;stroke-opacity:1"
       id="rect4543"
       width="197.68155"
       height="267.60715"
       x="6.4255953"
       y="-3.1130953"
       ry="8.2771454" />
    <g
       id="g4558"
       transform="translate(0,2.2678571)"
       inkscape:export-xdpi="26.126831"
       inkscape:export-ydpi="26.126831">
      <g
         transform="matrix(1.0557566,0,0,0.99894457,-5.9009052,1.6426586)"
         inkscape:export-ydpi="26.099258"
         inkscape:export-xdpi="26.099258"
         id="g4550">
        <rect
           style="opacity:1;fill:#ffffff;fill-opacity:1;stroke:#ffffff;stroke-width:6.5999999;stroke-miterlimit:4;stroke-dasharray:none;stroke-opacity:1"
           id="rect4545"
           width="159.50595"
           height="168.57739"
           x="26.080357"
           y="39.598209"
           ry="0" />
      </g>
      <circle
         inkscape:export-ydpi="56.0839"
         inkscape:export-xdpi="56.0839"
         r="64.633926"
         cy="128.04465"
         cx="106.21131"
         id="path826"
         style="opacity:1;fill:#f40000;fill-opacity:0.87064676;stroke:#5a0000;stroke-width:6.5999999;stroke-miterlimit:4;stroke-dasharray:none;stroke-opacity:0.22459896" />
      <g
         inkscape:export-ydpi="56.0839"
         inkscape:export-xdpi="56.0839"
         id="text4535"
         style="font-style:normal;font-variant:normal;font-weight:normal;font-stretch:normal;font-size:129.87446594px;line-height:1.25;font-family:Century;-inkscape-font-specification:'Century, Normal';font-variant-ligatures:normal;font-variant-caps:normal;font-variant-numeric:normal;font-feature-settings:normal;text-align:start;letter-spacing:0px;word-spacing:0px;writing-mode:lr-tb;text-anchor:start;fill:#ffffff;fill-opacity:1;stroke:#ffffff;stroke-width:3.24686527"
         transform="matrix(1.2192645,0,0,0.82016659,-0.75595238,1.889881)"
         aria-label="?">
        <path
           sodipodi:nodetypes="ccccccscccscssscscscsccccssscssscs"
           inkscape:connector-curvature="0"
           id="path4540"
           style="font-style:normal;font-variant:normal;font-weight:normal;font-stretch:normal;font-size:129.87446594px;font-family:Century;-inkscape-font-specification:'Century, Normal';font-variant-ligatures:normal;font-variant-caps:normal;font-variant-numeric:normal;font-feature-settings:normal;text-align:start;writing-mode:lr-tb;text-anchor:start;fill:#ffffff;stroke:#ffffff;stroke-width:3.24686527"
           d="m 89.308706,173.20266 h -5.686035 c 0,-4.98867 0.253661,-8.92041 0.760983,-11.79524 0.549599,-2.87483 1.226028,-5.13664 2.029288,-6.78544 0.845537,-1.69107 2.95938,-4.75614 6.341527,-9.19521 2.663441,-3.4667 4.523622,-6.72202 5.580543,-9.76595 1.099198,-3.08621 1.604087,-6.46895 1.648797,-10.14644 0.06177,-5.08049 -0.91486,-9.91331 -4.084419,-12.45624 -5.829327,-3.9261 -8.112651,-3.61864 -8.112651,-3.61864 0,0 -5.399818,-0.35056 -8.952532,3.02135 -1.314079,1.06561 -3.19136,3.20806 -3.970036,4.36564 -0.482615,0.71746 -0.880621,2.15611 0.768176,3.42442 2.494334,1.94473 3.741501,4.05858 3.741501,6.34153 0,2.02929 -0.655291,3.72036 -1.965874,5.07322 -1.310582,1.35286 -2.804377,3.64228 -4.791388,3.64228 -2.367504,0 -5.925671,-1.18166 -7.574468,-3.08412 -1.60652,-1.90246 -2.40978,-5.77935 -2.40978,-8.86556 0,-4.86184 2.860679,-11.52062 7.342024,-15.36781 3.86134,-5.27203 11.055316,-8.368896 17.861888,-8.368896 6.975679,0 14.89535,4.229956 19.41898,8.542196 4.5659,4.31224 6.07384,11.41911 6.07384,17.63381 0,3.97402 -0.93713,8.95011 -2.50137,12.16315 -1.18375,2.40978 -3.85426,5.79193 -8.63155,10.14645 -6.214696,5.58054 -9.068463,9.93296 -10.421322,12.5964 -1.310582,2.66344 -2.339292,6.36895 -2.466122,12.4991 z m -3.846993,13.6977 c 2.113843,0 3.910609,0.73984 5.390298,2.21953 1.479689,1.47969 2.219534,3.25531 2.219534,5.32688 0,2.1984 -0.739845,4.07972 -2.219534,5.64396 -1.479689,1.52197 -3.276455,2.28295 -5.390298,2.28295 -2.113842,0 -3.910608,-0.76098 -5.390297,-2.28295 -1.47969,-1.52197 -2.219535,-3.40329 -2.219535,-5.64396 0,-2.11384 0.739845,-3.88947 2.219535,-5.32688 1.479689,-1.47969 3.276455,-2.21953 5.390297,-2.21953 z" />
      </g>
      <path
         inkscape:export-ydpi="56.0839"
         inkscape:export-xdpi="56.0839"
         sodipodi:nodetypes="ssssss"
         inkscape:connector-curvature="0"
         id="path4537"
         d="m 154.38935,104.20937 c 3.84926,8.74658 -39.97736,-5.20849 -58.005411,9.91285 -9.993277,8.38203 -38.439912,9.71016 -41.334514,0.13339 -0.467558,-1.54691 -0.167543,-3.3315 0.782827,-5.51052 9.293485,-21.308264 28.113575,-34.119495 50.445888,-34.103324 26.37167,0.0191 43.2029,18.41458 48.11121,29.567604 z"
         style="opacity:0.175;fill:#fff8ff;fill-opacity:1;stroke:#ffffff;stroke-width:15.45496082;stroke-miterlimit:4;stroke-dasharray:none;stroke-opacity:1" />
    </g>
  </g>
</svg>
